<svg id="Layer_1" data-name="Layer 1" xmlns="http://www.w3.org/2000/svg" viewBox="0 0 546.79 273.94"><defs><style>.cls-1{fill:#fcb72d;}.cls-2{fill:#4117ab;}.cls-3{fill:#e2dcd2;}.cls-4{fill:#3dc1ff;}.cls-5{fill:#493e3a;}.cls-6{fill:#ff5d7d;}</style></defs><circle cx="274.04" cy="48.34" r="42.75"/><circle cx="329.71" cy="64.05" r="10.64" transform="translate(27.04 209.13) rotate(-45)"/><circle cx="251.85" cy="120.02" r="19.33" transform="translate(-39.96 156.24) rotate(-41.93)"/><path d="M338.05,46.31a3.55,3.55,0,1,1-3.54-3.54A3.54,3.54,0,0,1,338.05,46.31Z" transform="translate(-24.24 -42.77)"/><circle cx="211.51" cy="95.03" r="1.74"/><rect class="cls-1" x="21.42" y="160.39" width="489.63" height="91.5"/><path class="cls-2" d="M198.51,216.33s-12,3.19-16.8,14.21-2.79,18.83-1.15,21.44,2.07,11.27.24,16.16a55.57,55.57,0,0,0,2-16.16c-.13-9.65,3.68-9.65,5.85-16.82a78.36,78.36,0,0,1,5.88-14c.19-.26,3-3.52,3-3.52Z" transform="translate(-24.24 -42.77)"/><path class="cls-2" d="M171.34,247.68s.39-25.22,20.13-35.19c0,0-4.76,9.09-5.51,15.54s-5.83,11.83-7.78,14.17S171.34,247.68,171.34,247.68Z" transform="translate(-24.24 -42.77)"/><path d="M182.49,224.06a44.43,44.43,0,0,0-2.16,4.59c-.7,1.72-1.36,3.59-2,5.48s-1.11,3.8-1.55,5.6-.76,3.32-1,4.72l.28-.23c.3-1.33.67-2.82,1.08-4.41.46-1.79,1-3.69,1.59-5.57a63.61,63.61,0,0,1,3.94-10.07,28.15,28.15,0,0,1,1.81-3.08c.49-.7.82-1.08.82-1.08s-.35.36-.88,1A25.76,25.76,0,0,0,182.49,224.06Z" transform="translate(-24.24 -42.77)"/><path class="cls-2" d="M160.81,220.82c.17.47.34.94.5,1.42a1.21,1.21,0,0,1,.34-.05,1.36,1.36,0,0,1,.42,2.63,25.11,25.11,0,0,1,.62,3.21c.74,6.45,5.83,11.83,7.78,14.17s6.85,5.48,6.85,5.48-.39-25.22-20.14-35.19c0,0,1.39,2.65,2.78,6.1A1.38,1.38,0,0,1,160.81,220.82Zm4,5.18a1.34,1.34,0,0,1,.05,2.68A1.34,1.34,0,0,1,164.78,226Z" transform="translate(-24.24 -42.77)"/><path d="M166.16,224.06a44.43,44.43,0,0,1,2.16,4.59c.7,1.72,1.36,3.59,2,5.48s1.1,3.8,1.55,5.6.75,3.32,1,4.72l-.28-.23c-.3-1.33-.66-2.82-1.07-4.41-.46-1.79-1-3.69-1.6-5.57A64.64,64.64,0,0,0,166,224.17a28,28,0,0,0-1.82-3.08c-.49-.7-.81-1.08-.81-1.08s.34.36.87,1A23.39,23.39,0,0,1,166.16,224.06Z" transform="translate(-24.24 -42.77)"/><path d="M180,300.59s-2.74-13.16-3.13-15.25-.72-10.16-3.78-10.88-6.16,2.59-6.16,2.59,7.43,2.15,9.44,8.16a103.57,103.57,0,0,1,3.22,15.38Z" transform="translate(-24.24 -42.77)"/><path class="cls-2" d="M151,280.33a15.54,15.54,0,0,1,3.32-3.85,1.32,1.32,0,0,0,1,.4h.09a1.36,1.36,0,0,0,1.32-1.37,1.26,1.26,0,0,0-.13-.54c2-1,3.65-1.22,4.2-1a19.63,19.63,0,0,0,7.59.24,9.59,9.59,0,0,1,4.79.26,62.66,62.66,0,0,1-6.16,2.59c-1,.17-4.2,1.52-8.26,5s-11.24,12.46-12.12,12.61S147.4,286.09,151,280.33Z" transform="translate(-24.24 -42.77)"/><path d="M163.25,274.38c.41,0,.3,0,.77,0-4.58,1.31-14.16,5.62-17.2,19.05A24.79,24.79,0,0,1,163.25,274.38Z" transform="translate(-24.24 -42.77)"/><path d="M181.41,300.59s2.73-13.16,3.12-15.25.72-10.16,3.78-10.88,6.16,2.59,6.16,2.59S187,279.2,185,285.21a102.76,102.76,0,0,0-3.23,15.38Z" transform="translate(-24.24 -42.77)"/><path class="cls-2" d="M188.31,274.46a9.61,9.61,0,0,1,4.79-.26,19.7,19.7,0,0,0,7.6-.24c1-.39,6.19.6,9.75,6.37s5.28,14.46,4.4,14.32-8.06-9.14-12.12-12.61-7.26-4.82-8.26-5A63.72,63.72,0,0,1,188.31,274.46Z" transform="translate(-24.24 -42.77)"/><path d="M198.17,274.38c-.41,0-.3,0-.77,0,4.58,1.31,14.16,5.62,17.21,19.05A24.82,24.82,0,0,0,198.17,274.38Z" transform="translate(-24.24 -42.77)"/><path class="cls-2" d="M139.62,249.76s7-5.21,14.59-.32c1,.64,1.89,1.27,2.7,1.87a1.19,1.19,0,0,1,1.12-.67,1.37,1.37,0,0,1,1,2.31l1,.89a1.21,1.21,0,0,1,.65-.17,1.35,1.35,0,0,1,1.23,1.87,40.8,40.8,0,0,0,8.47,6.41c7.24,4,7.76,12.19,7.76,15.83s1.63,6.59,1.43,9,.46,13.81.46,13.81h.78s.13-27.82-.78-29.68a138.93,138.93,0,0,1-5.21-15,15,15,0,0,1-.46-5,11.37,11.37,0,0,0-8.08-5.79c-6-1.18-8.08-1.83-10.1-3.13S143.33,239.86,139.62,249.76Zm25.65,3a1.34,1.34,0,0,1,0,2.68A1.34,1.34,0,0,1,165.27,252.79Z" transform="translate(-24.24 -42.77)"/><path d="M153.57,245.89a18.82,18.82,0,0,1,2.12.28c.78.15,1.61.33,2.47.58s1.77.55,2.69.89,1.86.76,2.79,1.19,1.87.92,2.78,1.44a62.32,62.32,0,0,1,8.43,5.82,1.21,1.21,0,0,1,.05.18,63.08,63.08,0,0,0-8.57-5.83c-.91-.52-1.84-1-2.76-1.45s-1.86-.85-2.77-1.21-1.81-.66-2.67-.91-1.69-.44-2.46-.6-1.48-.25-2.11-.31-1.19-.08-1.65-.12h-1.43l1.43,0C152.37,245.84,152.93,245.82,153.57,245.89Z" transform="translate(-24.24 -42.77)"/><path class="cls-2" d="M177.92,299.32h.78s.65-11.41.46-13.82,1.43-5.34,1.43-9,.52-11.8,7.76-15.84,8.6-7.63,16.16-12.51,14.6.32,14.6.32c-2.65-7.06-8.91-8.65-13-8.52a1.31,1.31,0,1,1-2.47.34,3.69,3.69,0,0,0-1.07.43c-2,1.3-4.11,2-10.11,3.13a11.37,11.37,0,0,0-8.08,5.8,15.08,15.08,0,0,1-.45,5,141,141,0,0,1-5.22,15C177.79,271.5,177.92,299.32,177.92,299.32Zm15.5-55.59a1.34,1.34,0,0,1,.05,2.68A1.34,1.34,0,0,1,193.42,243.73Z" transform="translate(-24.24 -42.77)"/><path d="M205.16,244.61a18.68,18.68,0,0,0-2.13.28c-.77.15-1.61.34-2.47.58s-1.77.55-2.69.9-1.86.75-2.79,1.18-1.87.92-2.78,1.44a63,63,0,0,0-8.43,5.82c0,.06,0,.12-.05.19a61.72,61.72,0,0,1,8.58-5.84c.9-.52,1.83-1,2.75-1.45s1.86-.85,2.77-1.21,1.81-.66,2.67-.91,1.69-.44,2.46-.6,1.48-.25,2.11-.31,1.19-.08,1.65-.12c.91,0,1.44,0,1.44,0s-.53,0-1.44-.05C206.35,244.56,205.79,244.54,205.16,244.61Z" transform="translate(-24.24 -42.77)"/><path class="cls-2" d="M166.41,234.48a15.81,15.81,0,0,0-6.4-1.43,10,10,0,0,1-5.6-1.47c-1.11-.46-10.85.88-16.59,8.37a48.57,48.57,0,0,1,16.39-4.79c9.29-.94,8-.39,8-.39l2.93.72Z" transform="translate(-24.24 -42.77)"/><path d="M180.8,300.59s-.13-25,0-32.45-2.74-22.42-4.43-26.72-12.45-10.49-22.16-6.26c0,0,6,.07,7.56,1.89s5.41,6.52,7.63,8.15,3.19,12.38,5.93,17.86,4.43,7.88,4.69,12.38.45,25.15.45,25.15Z" transform="translate(-24.24 -42.77)"/><path d="M206,215.91s-9-1.47-13.44,4.1-15,19.36-11.76,27.67,0,20.46,0,20.46,3.36-6.6,3-17.1,5.47-11.77,9.87-22.72S201.07,216.4,206,215.91Z" transform="translate(-24.24 -42.77)"/><polygon points="157.16 222.59 156.98 257.83 156.56 257.83 156.6 225.21 157.16 222.59"/><path d="M177.32,275.31s-.55,3.26,1.38,9.71v15.57h.47V285.41s2.2-5,5-6.13C184.15,279.28,179,275.57,177.32,275.31Z" transform="translate(-24.24 -42.77)"/><path d="M183.54,278.63s-.55-7.08,1.85-9.6,8.85-3.26,11.39-9.2a47.22,47.22,0,0,1,5.43-9.65s-13.09,3-16.82,9.65-2.83,18.8-2.83,18.8Z" transform="translate(-24.24 -42.77)"/><path class="cls-2" d="M193.88,253.09s7.88-3.17,13.83-1.19,6.85-1.72,6.85-1.72-.36,1-6.58-.44A15.83,15.83,0,0,0,193.88,253.09Z" transform="translate(-24.24 -42.77)"/><path d="M170.78,294.21h0c-.87,10.05,6.13,17.1,14.7,20.39a10.88,10.88,0,0,1-2.24,1h-6.44c-5-1.57-8.74-6.74-8.74-12.89A14.34,14.34,0,0,1,170.78,294.21Z" transform="translate(-24.24 -42.77)"/><path d="M170.77,294.21c.76.33,4.65.57,9.34.57a54.8,54.8,0,0,0,9.19-.51,14.31,14.31,0,0,1,2.67,8.42,13.64,13.64,0,0,1-6.5,11.91C176.9,311.31,169.91,304.26,170.77,294.21Z" transform="translate(-24.24 -42.77)"/><path class="cls-2" d="M186.41,273.89a19.81,19.81,0,0,1-9.09,1.42s11.34,4.44,11.29,31.42C188.61,306.73,195.21,289.93,186.41,273.89Z" transform="translate(-24.24 -42.77)"/><path d="M183.3,274.87l.27.39c.38.54.73,1.16,1.13,1.8s.78,1.36,1.11,2.12l.53,1.14.48,1.19c.35.8.59,1.65.88,2.49s.45,1.7.67,2.54.31,1.7.47,2.51.18,1.61.26,2.37.06,1.47.09,2.13.06,1.26,0,1.8-.06,1-.09,1.38c0,.77-.07,1.21-.07,1.21s0-.44,0-1.21v-1.38c0-.54-.05-1.14-.08-1.79a20.63,20.63,0,0,0-.16-2.12c-.1-.74-.18-1.53-.31-2.34s-.3-1.64-.49-2.47-.41-1.69-.68-2.52-.51-1.67-.85-2.47c-.15-.4-.31-.79-.46-1.19s-.35-.76-.52-1.13c-.32-.75-.71-1.44-1-2.12s-.71-1.28-1.07-1.83c-.1-.15-.2-.3-.29-.45Z" transform="translate(-24.24 -42.77)"/><path class="cls-1" d="M159,96.44a4.38,4.38,0,1,1-4.38-4.37A4.37,4.37,0,0,1,159,96.44Z" transform="translate(-24.24 -42.77)"/><circle class="cls-1" cx="146.02" cy="41.53" r="10.08"/><path class="cls-3" d="M261.65,280.89a.42.42,0,0,1-.3-.12l-7.07-7.07a.44.44,0,0,1,0-.6.42.42,0,0,1,.59,0l7.07,7.07a.42.42,0,0,1-.29.72Z" transform="translate(-24.24 -42.77)"/><path class="cls-3" d="M254.58,280.89a.42.42,0,0,1-.3-.12.43.43,0,0,1,0-.6l7.07-7.07a.42.42,0,0,1,.59,0,.42.42,0,0,1,0,.6l-7.07,7.07A.42.42,0,0,1,254.58,280.89Z" transform="translate(-24.24 -42.77)"/><circle class="cls-3" cx="273.97" cy="260.69" r="8.44" transform="translate(-52.21 445.63) rotate(-80.6)"/><path class="cls-3" d="M264.13,262.73a10.26,10.26,0,1,1,10.26-10.26A10.27,10.27,0,0,1,264.13,262.73Zm0-19.68a9.42,9.42,0,1,0,9.42,9.42A9.44,9.44,0,0,0,264.13,243.05Z" transform="translate(-24.24 -42.77)"/><path class="cls-3" d="M515.06,239.72a4.56,4.56,0,1,1,4.56-4.56A4.57,4.57,0,0,1,515.06,239.72Zm0-8.18a3.63,3.63,0,1,0,3.62,3.62A3.63,3.63,0,0,0,515.06,231.54Z" transform="translate(-24.24 -42.77)"/><polygon class="cls-3" points="507.45 168.44 507.81 178.25 508.16 188.06 499.49 183.46 490.81 178.86 499.13 173.65 507.45 168.44"/><polygon class="cls-4" points="358.08 21.69 351.42 27.76 344.76 33.84 342.83 25.03 340.9 16.23 349.49 18.96 358.08 21.69"/><path d="M73.56,183.88a.5.5,0,0,1-.35-.15l-8.44-8.44a.5.5,0,0,1,.71-.71L73.92,183a.51.51,0,0,1,0,.71A.51.51,0,0,1,73.56,183.88Z" transform="translate(-24.24 -42.77)"/><path d="M65.13,183.88a.51.51,0,0,1-.36-.15.51.51,0,0,1,0-.71l8.44-8.44a.5.5,0,0,1,.71.71l-8.44,8.44A.5.5,0,0,1,65.13,183.88Z" transform="translate(-24.24 -42.77)"/><rect x="53.14" y="98.7" width="10.37" height="10.37"/><path class="cls-5" d="M414.4,296h0a44.48,44.48,0,0,1,8.56-.73,48.42,48.42,0,0,1,8.42.78c.1.12-.09-.13,0,0a49.49,49.49,0,0,1-8.42.47C418.65,296.52,415.08,296.29,414.4,296Z" transform="translate(-24.24 -42.77)"/><path d="M413.28,274.51c.37.27,5.94,14.17,6.76,18.5.68,3.58,1.86,12.15,1.86,12.15l-1,0s-2.26-13.28-3-16.82c-1-5.05-5.34-14.11-5.34-14.11Z" transform="translate(-24.24 -42.77)"/><path d="M413.28,274.51s2.83-1.07,3.21-2.45-3.82-.86-5.1-2-2.41-1.25-5.05-1.43-5-.47-6.49.09a3.3,3.3,0,0,1,1.71.68c2.62,2.3,6,2.17,7.87,3.29A34.61,34.61,0,0,0,413.28,274.51Z" transform="translate(-24.24 -42.77)"/><path d="M431.87,284.25c-.37.27-5.94,14.17-6.76,18.5-.68,3.58-1.87,12.15-1.87,12.15l1,0s2.26-13.28,3-16.82c1-5.05,5.34-14.11,5.34-14.11Z" transform="translate(-24.24 -42.77)"/><path d="M431.87,284.25s-2.83-1.08-3.21-2.45,3.82-.86,5.1-2,2.41-1.25,5.05-1.43,5-.47,6.49.09a3.3,3.3,0,0,0-1.71.68c-2.62,2.3-6,2.17-7.87,3.29A34.61,34.61,0,0,1,431.87,284.25Z" transform="translate(-24.24 -42.77)"/><path d="M425.86,302.94c-.3-3.3-2-13.82-1.52-23.18.22-4.95,3.34-21.48,5-25.13A43.37,43.37,0,0,1,431.7,250c.1-.32,1.56-1.16.68.36s-4.46,6.95-6.84,27.26c-1.15,9.82,2.18,32,2.4,32.49s-1,.86-1,.86C426.2,305.58,426.13,305.9,425.86,302.94Z" transform="translate(-24.24 -42.77)"/><path class="cls-2" d="M432.86,250s6.08-8,12.17-11.46,12.37-5,14.19-8.78-4.05-1-6.28-.36a60.46,60.46,0,0,1-8.32,1.26c-3.35.39-13,4.36-14.2,9.15C429.4,244,430,248.08,432.86,250Z" transform="translate(-24.24 -42.77)"/><path d="M430.15,241.17s-3,5.63-1.58,8.3S432,251,432,251l.83-1S429.58,247.9,430.15,241.17Z" transform="translate(-24.24 -42.77)"/><path d="M428.42,232.4l-2.34,3.86s-5.1-1.64-5.1-3.86-.63-1.52-1.45-2-.7-2,0-3.15-.55-1.38-1.14-2-2.45-4.83,4.94-7.17c3.15-1,3-.23,3.92,0S424.33,225.73,428.42,232.4Z" transform="translate(-24.24 -42.77)"/><path class="cls-2" d="M429,232.4s-3.28-.7-2.81-2.69.58-3.62-.7-4.91.82-8.31,3.51-11,9.47-6.06,11.81-7.94S446,203.47,449,202s9.12-6.24,9.24-8.93,2,4.29-2.58,8.93-16.14,13.76-17.89,16.69S430.06,229,429,232.4Z" transform="translate(-24.24 -42.77)"/><path d="M429.3,231.63s-4.26,7.44-6.22,34.11c-.57,7.81,1.62,30.55,1.62,30.55h-1.28s-1.86-23-1.16-30.95,3.27-27.43,3.82-29.07A10.32,10.32,0,0,1,429.3,231.63Z" transform="translate(-24.24 -42.77)"/><path d="M413.73,262.78l2.21,2.63s3.64-1.82,3.38-3.5.3-1.21.86-1.66.3-1.58-.36-2.37.26-1.1.63-1.61,1.28-3.92-4.55-4.81c-2.48-.39-2.27.17-2.95.45S416,257.29,413.73,262.78Z" transform="translate(-24.24 -42.77)"/><path class="cls-2" d="M413.29,262.85s2.38-.91,1.8-2.35-.86-2.66,0-3.78-1.59-6.15-3.92-7.86-7.83-3.46-9.81-4.6-4.15-1.19-6.6-1.93-7.59-3.63-8-5.64-1,3.46,3,6.42,13.74,8.47,15.4,10.47S412.11,260.42,413.29,262.85Z" transform="translate(-24.24 -42.77)"/><path d="M413,262.3s4.07,5.1,8.64,24.93C423,293,424,310.4,424,310.4l1-.16s-1.29-17.56-2.74-23.41-5.65-20.25-6.25-21.42A7.86,7.86,0,0,0,413,262.3Z" transform="translate(-24.24 -42.77)"/><path d="M410.86,244s5.54,11,7.24,20.84,5.08,38.55,5,40.65,1.39-.17,1.39-.17-4.37-37.75-6.46-45.45a95.74,95.74,0,0,0-6.25-16Z" transform="translate(-24.24 -42.77)"/><path d="M397,222.29s8.79,3.17,9.81,4.61,4,5.27,4.65,7,2.85,1.62,3.54,2.06,1.14,4.43,1.82,5.88,1.16,2.69.91,3.81-2.34,2.58-3.14,1.95S405.42,235,402,233.53s-6.6-1.69-7.75-4.44C393.52,227.35,395.79,223.33,397,222.29Z" transform="translate(-24.24 -42.77)"/><path d="M397,222.77s6.85,9.37,10.16,13.3a102.85,102.85,0,0,1,6.66,9.17s-9.64-12.64-10.38-13.47S397.73,223.72,397,222.77Z" transform="translate(-24.24 -42.77)"/><path class="cls-2" d="M412.59,248.11s1.66.31,2.22-.86-1.31-4.23-2.27-5.06-.93-2.8-1.21-3.17c-.55-.75-7.75-3.68-7.65-5.1s-4.62-1.89-7.08-2.46c-1.11-.25,4.6,2,8.09,5.6C407.31,239.76,410.92,242.54,412.59,248.11Z" transform="translate(-24.24 -42.77)"/><path d="M432.17,264.81c-2.21,5.67-9.32,35.75-9.36,37.69s-2.08.87-2.08.87,9.38-37.15,11.14-39.57C435.1,259.34,433.07,262.51,432.17,264.81Z" transform="translate(-24.24 -42.77)"/><path class="cls-2" d="M437.26,267s-3.5.62-4.93-2.06-1.3-3.58-1-4.28-1.11-2.08-1.11-2.08a6.49,6.49,0,0,1,1.41-4.66c1.76-2,2.28-1.6,3.34-2.62s2.52-5,6.1-5.62a2.18,2.18,0,0,1,1.27.23,8.79,8.79,0,0,1,4.41-2.05c3.15-.69,3.46-1.39,4.52-2.26s2.53-1,3-2.17.76,4.42-.4,6.11-2.68,3.42-3,5.06a9.07,9.07,0,0,1-2.28,4.6c-.27.21-4.08,2.24-5.28,4.71S441.11,265.42,437.26,267Z" transform="translate(-24.24 -42.77)"/><path d="M453.11,242.22S433,259,431.86,264l.47.94a17,17,0,0,1,3.35-5.49C441.46,253.15,449.73,245.66,453.11,242.22Z" transform="translate(-24.24 -42.77)"/><path d="M414.62,296.08a54.08,54.08,0,0,0,8.28.44,49.37,49.37,0,0,0,8.4-.47c1.53,2.11-.69,5.53-.69,8.45,0,4.76.72,8.14-2.81,10.18h0a11.2,11.2,0,0,1-1.8.82C419.4,311.86,416.29,303.62,414.62,296.08Z" transform="translate(-24.24 -42.77)"/><path d="M414.49,296.05l.13,0c1.67,7.54,4.78,15.78,11.39,19.42l-.25.08H420a10.38,10.38,0,0,1-2-.9h0c-3.53-2-2.81-5.42-2.81-10.18C415.18,301.58,413,298.16,414.49,296.05Z" transform="translate(-24.24 -42.77)"/><path class="cls-6" d="M448.62,183.26,440.94,185,435.72,184a.32.32,0,0,0-.28.55l2.3,2.16-4.95,2.51a2.86,2.86,0,0,0-1.49,3.24h0a2.88,2.88,0,0,0,3.38,2.14l16.63-4.27Z" transform="translate(-24.24 -42.77)"/><path class="cls-6" d="M448.6,288.7l4.53,11.95a6.55,6.55,0,0,1-3.27,8.23l-13.13,6.36.82.21a29.25,29.25,0,0,0,15.34-.32l8.25-2.42v4h2.93l1.84-5.75a7.46,7.46,0,0,0,0-4.51l-6.63-20.56Z" transform="translate(-24.24 -42.77)"/><path class="cls-6" d="M507.6,287l10,7.91a6.56,6.56,0,0,1,1.43,8.74l-8,12.22.81-.25a29.21,29.21,0,0,0,13-8.17l5.82-6.34,2.06,3.43L535.3,303l-1.4-5.87a7.34,7.34,0,0,0-2.33-3.86l-16.27-14.2Z" transform="translate(-24.24 -42.77)"/><path class="cls-4" d="M453,212.12l-15.63,26a17.71,17.71,0,0,0-1.71,14.45l12.27,38.81,12.81-2.4-6.29-33.25a15.5,15.5,0,0,1,2.34-11.51l18.89-28.34Z" transform="translate(-24.24 -42.77)"/><path class="cls-4" d="M478.61,216.13l1.88,43.5a14.94,14.94,0,0,0,4.74,10.3l23,21.43,10.67-10.93-14.77-19.7a17.44,17.44,0,0,1-3.49-10.92l.92-37.69Z" transform="translate(-24.24 -42.77)"/><polygon points="455.17 191.93 477.02 195.99 455.3 194.95 455.17 191.93"/><path class="cls-2" d="M453,305.67h0a6.53,6.53,0,0,1-3.12,3.21l-13.13,6.36.82.21a29.25,29.25,0,0,0,15.34-.32l8.25-2.42v4h2.93l1.84-5.75a7.46,7.46,0,0,0,0-4.51C458.18,312.13,453,305.67,453,305.67Z" transform="translate(-24.24 -42.77)"/><path class="cls-2" d="M524.9,307.44l5.82-6.34,2.06,3.43L535.3,303l-1.4-5.87a7.34,7.34,0,0,0-2.33-3.86l-.07-.07a10.52,10.52,0,0,1-11.41,6,6.51,6.51,0,0,1-1,4.42l-8,12.22.81-.25A29.21,29.21,0,0,0,524.9,307.44Z" transform="translate(-24.24 -42.77)"/><polygon class="cls-2" points="333.35 166.92 355.74 149.77 344.54 139.19 327.34 161.88 333.35 166.92"/><circle class="cls-2" cx="346.06" cy="115.38" r="7.92"/><path class="cls-6" d="M363.42,127.7l.93,9a5.16,5.16,0,0,0,4.8,4.61l5.15.32,4.53,11,9.85-7.93-5.08-12-.66-6.73-9.74-2.24Z" transform="translate(-24.24 -42.77)"/><path class="cls-2" d="M364.16,120.22l-.21-.06a3.74,3.74,0,0,0-4.26,1.75h0a3.75,3.75,0,0,0,.79,4.69l.35.31a3.74,3.74,0,0,0,2.58.92l9.72-.3h0a5.88,5.88,0,0,0,1.69,6l.42.38,2.38-2.63,1.35,3.3,0,0a3.42,3.42,0,0,0,3.26,2l3,0L384,131.81c0-.75-.23.11.15-.53l2.26-3.88-6.33-5.47-15.89-1.71" transform="translate(-24.24 -42.77)"/><path class="cls-2" d="M370.36,119.49a3.37,3.37,0,1,1-4.39-1.83A3.37,3.37,0,0,1,370.36,119.49Z" transform="translate(-24.24 -42.77)"/><path class="cls-2" d="M376,119.53a3.36,3.36,0,1,1-4.39-1.84A3.35,3.35,0,0,1,376,119.53Z" transform="translate(-24.24 -42.77)"/><path class="cls-2" d="M381.64,120.84a3.37,3.37,0,1,1-4.39-1.83A3.37,3.37,0,0,1,381.64,120.84Z" transform="translate(-24.24 -42.77)"/><path class="cls-2" d="M386.22,124.2a4.85,4.85,0,1,1-6.32-2.65A4.84,4.84,0,0,1,386.22,124.2Z" transform="translate(-24.24 -42.77)"/><path class="cls-6" d="M377.61,136.16h0a2.25,2.25,0,0,1-1.76-2.64l.13-.68a2.26,2.26,0,0,1,2.65-1.77h0a2.27,2.27,0,0,1,1.77,2.65l-.14.68A2.25,2.25,0,0,1,377.61,136.16Z" transform="translate(-24.24 -42.77)"/><polygon points="354.85 98.58 350.06 98.82 350.67 100.3 354.85 98.58"/><path class="cls-4" d="M369.85,149.14l25.06-8.3a11.87,11.87,0,0,1,15.2,8.19l19.68,73.23H379.63l-13.05-67.53A4.9,4.9,0,0,1,369.85,149.14Z" transform="translate(-24.24 -42.77)"/><path d="M137.49,183.86l-9.23-35.37h0a7.07,7.07,0,1,0-13.08,5.1h0l9.76,28.59a22,22,0,0,0,7.92,10.7l23.76,17.18,3.72-5.88Z" transform="translate(-24.24 -42.77)"/><path d="M157,201.19l6.19,4.88,5.19,1.24a.32.32,0,0,1,0,.61l-3,1,3.41,4.38a2.87,2.87,0,0,1,0,3.57h0a2.86,2.86,0,0,1-4,.49L151.54,206.4Z" transform="translate(-24.24 -42.77)"/><path class="cls-6" d="M72.81,230.27,40,313.7h4.8l2.12-5.38,9.48,5.38H68l-1.52-1.52a8.8,8.8,0,0,0-6.22-2.58h0l-4.53-8.72a4.2,4.2,0,0,1,.08-4l41.27-71.38Z" transform="translate(-24.24 -42.77)"/><path class="cls-2" d="M60.27,309.6l-4.53-8.72a4.2,4.2,0,0,1,.08-4L65,281.05H52.84L40,313.7h4.8l2.12-5.38,9.48,5.38H68l-1.52-1.52A8.8,8.8,0,0,0,60.27,309.6Z" transform="translate(-24.24 -42.77)"/><path class="cls-6" d="M101,229.6l21.74,30-16.27,52.66H111l2.07-5.37,8.54,5.37H136l-.71-1.11a9.31,9.31,0,0,0-7.82-4.26h0l-6.11-5.84a5.47,5.47,0,0,1-1.13-6.37l16.48-33.47a13.55,13.55,0,0,0,.27-11.36L124.57,221.2Z" transform="translate(-24.24 -42.77)"/><path class="cls-2" d="M127.51,306.91l-6.11-5.84a5.47,5.47,0,0,1-1.13-6.37L127,281.05H116.08l-9.65,31.23H111l2.07-5.37,8.54,5.37H136l-.71-1.11A9.31,9.31,0,0,0,127.51,306.91Z" transform="translate(-24.24 -42.77)"/><path class="cls-4" d="M132,116.39a4.73,4.73,0,0,0-2.18,0,1.45,1.45,0,0,1-1.54-.56,5.57,5.57,0,0,0-8.74-.42,2.57,2.57,0,0,1-2.58.78,5.69,5.69,0,0,0-1.61-.15,5.62,5.62,0,0,0-5,3.94,5.69,5.69,0,0,0-.23,1.9,1.07,1.07,0,0,1-.89,1.1,4.43,4.43,0,0,0-3.39,6,4,4,0,0,0,3.52,2.65h0a5.56,5.56,0,0,0,9.35-5.36,5.62,5.62,0,0,0,2.09-2.5,5.63,5.63,0,0,0,2.26.82,5.56,5.56,0,0,0,4-1.06,4.63,4.63,0,0,0,8.44-2.55A4.66,4.66,0,0,0,132,116.39Z" transform="translate(-24.24 -42.77)"/><path class="cls-6" d="M115.28,128.23l-3.47,13.28a5.26,5.26,0,0,0,3.91,6.45h0a5.25,5.25,0,0,0,6.3-3.91l2.77-11.73Z" transform="translate(-24.24 -42.77)"/><path d="M118.46,133.26c1.05,3.33,5.3,3.41,5.3,3.41h0l1-4C121.82,131.85,117.78,131.08,118.46,133.26Z" transform="translate(-24.24 -42.77)"/><path class="cls-6" d="M121.44,135.38h0a7.06,7.06,0,0,1-6.07-7.87l.25-1.88a7,7,0,0,1,7.87-6.06h0a7,7,0,0,1,6.06,7.87l-.24,1.87A7.06,7.06,0,0,1,121.44,135.38Z" transform="translate(-24.24 -42.77)"/><path class="cls-4" d="M115.47,126.78a1.49,1.49,0,0,0,.35-.1,5.26,5.26,0,0,0,3-2.65l.37-.74a3.21,3.21,0,0,1,3.68-1.69l10,2.54-.42-7.86-5.46,2.2-10.36-.07-2.2,5Z" transform="translate(-24.24 -42.77)"/><path class="cls-6" d="M115,128.74a2.6,2.6,0,1,1,1-3.22A2.4,2.4,0,0,1,115,128.74Z" transform="translate(-24.24 -42.77)"/><path class="cls-2" d="M124.5,143.89l-14.21-3.15a10.84,10.84,0,0,0-13.2,10.58v32.29h0A55.69,55.69,0,0,0,76.57,211L68,235.87h45.36V229.2l4.8,6.67h14.41L119.5,198.52l10.94-25.75,3.76-2.1A4.64,4.64,0,0,0,136,164.3l-6.31-10.87h0A7.17,7.17,0,0,0,124.5,143.89Z" transform="translate(-24.24 -42.77)"/><path class="cls-6" d="M233.36,197.29l6.19,4.07,5.34-.08a.32.32,0,0,1,.17.59l-2.67,1.68,4.38,3.41a2.88,2.88,0,0,1,.85,3.47h0a2.88,2.88,0,0,1-3.73,1.45l-15.27-6.4Z" transform="translate(-24.24 -42.77)"/><path d="M213.25,182.87l-17.9-36.93h0A7.07,7.07,0,1,0,183,152.62h0l22.2,39.62,24.56,14.1,4.27-9.07Z" transform="translate(-24.24 -42.77)"/><polygon class="cls-3" points="205.85 151.79 201.32 161.18 205.5 163.58 209.77 154.51 205.85 151.79"/><path d="M26.39,281.24a2.15,2.15,0,0,1-.12-4.29c.21,0,21.1-1.26,29.64-9,2.21-2,4.74-4.35,7.67-7.07,6.23-5.79,14-13,23.92-21.66a138.7,138.7,0,0,1,51.94-28.41l4-1.15a137.18,137.18,0,0,1,41-5.48l25.13.45a134.45,134.45,0,0,0,16.91-.77,2.15,2.15,0,1,1,.47,4.27,137.47,137.47,0,0,1-17.45.79l-25.14-.45a133,133,0,0,0-39.75,5.31l-4,1.16a134.26,134.26,0,0,0-50.32,27.51c-9.87,8.62-17.61,15.8-23.82,21.57-2.94,2.74-5.48,5.1-7.71,7.11-9.67,8.72-31.36,10-32.28,10.06Z" transform="translate(-24.24 -42.77)"/><path d="M265.12,169.32l-17.7,3.76c-14.85,3.52-24.16,18.35-20.7,33h0c3.46,14.6,18.44,23.67,33.29,20.16l17.7-3.77Z" transform="translate(-24.24 -42.77)"/><path class="cls-2" d="M277.73,221.38c2.3-4.28,2.53-14.75.26-26.59-2.35-12.33-6.68-22.29-10.51-25l-.27-1.37-2.11.69c-4.25.81-5.38,13.61-2.51,28.59s8.63,26.47,12.89,25.65a2,2,0,0,0,.47-.15l2-.65Z" transform="translate(-24.24 -42.77)"/><path class="cls-6" d="M153.85,312.14a14,14,0,0,0-9.64-4.74H144a8.21,8.21,0,0,1-5-2.2,2.67,2.67,0,0,1-.37-3.38L147,289l-11.2-1.6L121.64,313.7H155A14.86,14.86,0,0,0,153.85,312.14Z" transform="translate(-24.24 -42.77)"/><path class="cls-6" d="M224.26,288.78v6.84A10.41,10.41,0,0,0,233.78,306h0a12.8,12.8,0,0,1,9,4.73,16.56,16.56,0,0,1,1.07,1.56H212.65v-23.5Z" transform="translate(-24.24 -42.77)"/><path d="M212.65,305l1.85.35a12.72,12.72,0,0,0,11.62-3.81h0a10.36,10.36,0,0,0,7.61,4.44,12.88,12.88,0,0,1,9.09,4.77,15.93,15.93,0,0,1,1.05,1.53H212.65Z" transform="translate(-24.24 -42.77)"/><path class="cls-6" d="M333,288.78v6.84A10.41,10.41,0,0,1,323.47,306h0a12.8,12.8,0,0,0-9,4.73,16.46,16.46,0,0,0-1.06,1.56H344.6v-23.5Z" transform="translate(-24.24 -42.77)"/><path d="M344.6,305l-1.85.35a12.69,12.69,0,0,1-11.61-3.81h0a10.4,10.4,0,0,1-7.61,4.44,12.9,12.9,0,0,0-9.1,4.77,17.88,17.88,0,0,0-1,1.53H344.6Z" transform="translate(-24.24 -42.77)"/><path class="cls-6" d="M374.3,288.78v6.84A10.41,10.41,0,0,1,364.78,306h0a12.8,12.8,0,0,0-9,4.73,18.69,18.69,0,0,0-1.07,1.56h31.22v-23.5Z" transform="translate(-24.24 -42.77)"/><path d="M385.91,305l-1.85.35a12.72,12.72,0,0,1-11.62-3.81h0a10.36,10.36,0,0,1-7.61,4.44,12.88,12.88,0,0,0-9.09,4.77,15.93,15.93,0,0,0-1.05,1.53h31.22Z" transform="translate(-24.24 -42.77)"/><path class="cls-6" d="M183.26,128l-1.73,13.61a5.26,5.26,0,0,0,4.7,5.9h0a5.26,5.26,0,0,0,5.75-4.69l1.24-12Z" transform="translate(-24.24 -42.77)"/><path d="M187.06,132.6c1.47,3.17,5.7,2.71,5.7,2.71h0l.43-4.11C190.21,130.78,186.11,130.54,187.06,132.6Z" transform="translate(-24.24 -42.77)"/><path d="M195.48,115.31a4.86,4.86,0,0,1-2.3.35l-6.22-.55a5.88,5.88,0,0,0-6.38,6.23c.15,2.26,2.33,8.8,2.33,9.44L198.68,114Z" transform="translate(-24.24 -42.77)"/><path class="cls-6" d="M190.29,134.32h0a7,7,0,0,1-7-7v-1.89a7,7,0,0,1,7-7h0a7,7,0,0,1,7,7v1.89A7,7,0,0,1,190.29,134.32Z" transform="translate(-24.24 -42.77)"/><path d="M204.13,117.69a4,4,0,1,1-4-4A4,4,0,0,1,204.13,117.69Z" transform="translate(-24.24 -42.77)"/><path d="M183.26,126.56a1.25,1.25,0,0,0,.34-.13,5.28,5.28,0,0,0,2.58-3l.27-.78a3.24,3.24,0,0,1,3.44-2.15l10.21,1.24L198.68,114l-5.14,2.89-10.28,1.25-1.54,5.25Z" transform="translate(-24.24 -42.77)"/><path class="cls-6" d="M183,128.58a2.6,2.6,0,1,1,.63-3.33A2.41,2.41,0,0,1,183,128.58Z" transform="translate(-24.24 -42.77)"/><path d="M476.2,134.83l-20.75,5.67a7.35,7.35,0,0,1-9-5h0a7.33,7.33,0,0,1,2.11-7.47h0a1.87,1.87,0,0,0,.54-1.91l-.28-1A9.09,9.09,0,0,1,452,115.4l.38-.29a11.08,11.08,0,0,1,7.79-2.26h0a11.07,11.07,0,0,1,9,6.44l1.06,2.32,4.22,0a6.69,6.69,0,0,1,6.61,6.08h0A6.7,6.7,0,0,1,476.2,134.83Z" transform="translate(-24.24 -42.77)"/><path class="cls-6" d="M457.46,133.58l2,10.64a5.78,5.78,0,0,0,6.67,4.63h0a5.78,5.78,0,0,0,4.7-6.75l-2.79-15" transform="translate(-24.24 -42.77)"/><path d="M457.89,135.92c2-.26,5.27-1,6.74-3,1-1.43-1.2-1.6-3.85-1.38l-3.32,2Z" transform="translate(-24.24 -42.77)"/><path class="cls-6" d="M462,134.12h0a7.37,7.37,0,0,0,5.68-8.71l-.41-1.94a7.37,7.37,0,0,0-8.72-5.67h0a7.37,7.37,0,0,0-5.67,8.72l.41,1.93A7.36,7.36,0,0,0,462,134.12Z" transform="translate(-24.24 -42.77)"/><path d="M450.37,123.34s6.5.83,7.74-4.85c0,0,2.45,4,6.94,2.74,0,0,0,5,4.28,5.43L467.6,119l-5.41-4-6.63.62L450.77,120Z" transform="translate(-24.24 -42.77)"/><path class="cls-6" d="M467.24,127.53a2.91,2.91,0,1,0-1.45-3.5A2.69,2.69,0,0,0,467.24,127.53Z" transform="translate(-24.24 -42.77)"/><path class="cls-3" d="M86.21,91.9H59.84a7.38,7.38,0,0,0-7.36,7.36v12.06a7.38,7.38,0,0,0,7.36,7.36H86.22a2,2,0,0,1,1.86,1.19l5.49,13V99.26A7.38,7.38,0,0,0,86.21,91.9Z" transform="translate(-24.24 -42.77)"/><path class="cls-2" d="M85,100.55H60.55a1.33,1.33,0,0,1-1.33-1.32h0a1.33,1.33,0,0,1,1.33-1.33H85a1.33,1.33,0,0,1,1.33,1.33h0A1.33,1.33,0,0,1,85,100.55Z" transform="translate(-24.24 -42.77)"/><path class="cls-2" d="M63.65,103h-3a1.36,1.36,0,0,0-1.33,1,1.33,1.33,0,0,0,1.28,1.69h3.1A1.32,1.32,0,0,0,65,104.34h0A1.32,1.32,0,0,0,63.65,103Z" transform="translate(-24.24 -42.77)"/><path class="cls-2" d="M85,103H67.34A1.32,1.32,0,0,0,66,104.34h0a1.32,1.32,0,0,0,1.33,1.32H85A1.33,1.33,0,0,0,86.32,104,1.36,1.36,0,0,0,85,103Z" transform="translate(-24.24 -42.77)"/><path class="cls-2" d="M72.79,110.77H60.55a1.33,1.33,0,0,1-1.33-1.32h0a1.34,1.34,0,0,1,1.33-1.33H72.79a1.33,1.33,0,0,1,1.33,1.33h0A1.32,1.32,0,0,1,72.79,110.77Z" transform="translate(-24.24 -42.77)"/><path class="cls-2" d="M85,110.77H76.4a1.33,1.33,0,0,1-1.33-1.32h0a1.34,1.34,0,0,1,1.33-1.33H85a1.34,1.34,0,0,1,1.33,1.33h0A1.33,1.33,0,0,1,85,110.77Z" transform="translate(-24.24 -42.77)"/><path class="cls-3" d="M518.69,92H497.53a7.39,7.39,0,0,0-7.36,7.36v5.71a7.63,7.63,0,0,1-5.64,7.36l-8,2.17h42.21a7.38,7.38,0,0,0,7.36-7.36V99.4A7.38,7.38,0,0,0,518.69,92Z" transform="translate(-24.24 -42.77)"/><path d="M496.4,107.12h24.5a1.33,1.33,0,0,1,1.32,1.33h0a1.33,1.33,0,0,1-1.32,1.33H496.4a1.33,1.33,0,0,1-1.32-1.33h0A1.33,1.33,0,0,1,496.4,107.12Z" transform="translate(-24.24 -42.77)"/><path d="M517.79,104.67h3.06a1.37,1.37,0,0,0,1.33-1A1.34,1.34,0,0,0,520.9,102h-3.11a1.34,1.34,0,0,0-1.33,1.33h0A1.34,1.34,0,0,0,517.79,104.67Z" transform="translate(-24.24 -42.77)"/><path d="M496.45,104.67h17.66a1.34,1.34,0,0,0,1.33-1.33h0a1.34,1.34,0,0,0-1.33-1.33H496.4a1.34,1.34,0,0,0-1.28,1.69A1.37,1.37,0,0,0,496.45,104.67Z" transform="translate(-24.24 -42.77)"/><path d="M508.65,96.9H520.9a1.33,1.33,0,0,1,1.32,1.33h0a1.33,1.33,0,0,1-1.32,1.33H508.65a1.34,1.34,0,0,1-1.33-1.33h0A1.34,1.34,0,0,1,508.65,96.9Z" transform="translate(-24.24 -42.77)"/><path d="M496.4,96.9h8.65a1.34,1.34,0,0,1,1.33,1.33h0a1.34,1.34,0,0,1-1.33,1.33H496.4a1.33,1.33,0,0,1-1.32-1.33h0A1.33,1.33,0,0,1,496.4,96.9Z" transform="translate(-24.24 -42.77)"/><path class="cls-3" d="M435.61,112.8V98.53a7.38,7.38,0,0,0-7.36-7.36H416.19a7.38,7.38,0,0,0-7.36,7.36V112.8h0a2,2,0,0,1-1.18,1.86l-13,5.49h33.63A7.38,7.38,0,0,0,435.61,112.8Z" transform="translate(-24.24 -42.77)"/><path class="cls-4" d="M431.89,108.45h-18.7a1.34,1.34,0,0,0-1.33,1.33h0a1.34,1.34,0,0,0,1.33,1.33h18.7a1.34,1.34,0,0,0,1.33-1.33h0A1.34,1.34,0,0,0,431.89,108.45Z" transform="translate(-24.24 -42.77)"/><path class="cls-4" d="M416.29,106h-3.05a1.36,1.36,0,0,1-1.33-1,1.33,1.33,0,0,1,1.28-1.69h3.1a1.33,1.33,0,0,1,1.33,1.33h0A1.33,1.33,0,0,1,416.29,106Z" transform="translate(-24.24 -42.77)"/><path class="cls-4" d="M431.84,106H420a1.33,1.33,0,0,1-1.33-1.33h0a1.33,1.33,0,0,1,1.33-1.33h11.91a1.33,1.33,0,0,1,1.28,1.69A1.37,1.37,0,0,1,431.84,106Z" transform="translate(-24.24 -42.77)"/><path class="cls-4" d="M419.64,98.23h-6.45a1.34,1.34,0,0,0-1.33,1.33h0a1.34,1.34,0,0,0,1.33,1.33h6.45A1.34,1.34,0,0,0,421,99.56h0A1.34,1.34,0,0,0,419.64,98.23Z" transform="translate(-24.24 -42.77)"/><path class="cls-4" d="M431.89,98.23h-8.64a1.33,1.33,0,0,0-1.33,1.33h0a1.33,1.33,0,0,0,1.33,1.33h8.64a1.34,1.34,0,0,0,1.33-1.33h0A1.34,1.34,0,0,0,431.89,98.23Z" transform="translate(-24.24 -42.77)"/><path class="cls-3" d="M194.61,141.74,181,139.66a10.07,10.07,0,0,0-11.38,7.9L157.39,206h37.08l7.4-54.55A8.64,8.64,0,0,0,194.61,141.74Z" transform="translate(-24.24 -42.77)"/><path class="cls-2" d="M159.52,206l-5.33,40.82-21.61,41.62,14.67,2.4L171,252.46a7.82,7.82,0,0,0,.83-1.81l6.64-20.92,32.81,26.42v36.28h16v-37.5a17,17,0,0,0-3.46-10.27L194.47,206Z" transform="translate(-24.24 -42.77)"/><path class="cls-6" d="M224.24,199.34l6.19,4.06,5.34-.08a.32.32,0,0,1,.17.59l-2.67,1.69,4.38,3.4a2.89,2.89,0,0,1,.85,3.47h0a2.88,2.88,0,0,1-3.73,1.45l-15.27-6.39Z" transform="translate(-24.24 -42.77)"/><path d="M204.13,184.91,186.23,148h0a7.07,7.07,0,0,0-13.63,2.63,7,7,0,0,0,1.27,4h0l22.2,39.62,24.56,14.11,4.27-9.07Z" transform="translate(-24.24 -42.77)"/><polygon class="cls-3" points="196.73 153.83 192.2 163.22 196.38 165.62 200.65 156.55 196.73 153.83"/><polyline points="450.85 141.87 424.02 149.27 420.85 139.79 449.3 131.71"/><ellipse class="cls-4" cx="272.78" cy="195.46" rx="7.84" ry="27.61" transform="translate(-56.1 11.94) rotate(-10.83)"/><path d="M336.92,209.4l17.7-3.78c14.84-3.53,24.15-18.36,20.68-33h0c-3.47-14.6-18.45-23.66-33.3-20.14l-17.7,3.78Z" transform="translate(-24.24 -42.77)"/><path class="cls-6" d="M376.72,163.64,370,159.46,367.13,155a.31.31,0,0,0-.58.18l.08,3.16-5.26-1.74a2.88,2.88,0,0,0-3.36,1.23h0a2.89,2.89,0,0,0,.88,3.91l14.75,8.77Z" transform="translate(-24.24 -42.77)"/><path class="cls-2" d="M324.28,157.34c-2.29,4.28-2.52,14.75-.25,26.59,2.37,12.33,6.7,22.28,10.53,25l.28,1.37,2.1-.69c4.25-.81,5.37-13.62,2.5-28.59s-8.65-26.46-12.91-25.65a2.6,2.6,0,0,0-.47.16l-2,.65Z" transform="translate(-24.24 -42.77)"/><ellipse class="cls-4" cx="329.24" cy="183.26" rx="7.84" ry="27.61" transform="translate(-52.87 22.55) rotate(-10.86)"/><ellipse cx="303.06" cy="130.14" rx="2.4" ry="3.07"/><path d="M334.51,194.74c0,1.69-1.08,3.07-2.4,3.07s-2.4-1.38-2.4-3.07,1.07-3.07,2.4-3.07S334.51,193.05,334.51,194.74Z" transform="translate(-24.24 -42.77)"/><path d="M379.63,222.26,338.9,238.67A15.43,15.43,0,0,0,329.24,253v40.79h18.11l1.33-40.29,65.89-12.07a11.14,11.14,0,0,0,9.11-11.82l-.56-7.33Z" transform="translate(-24.24 -42.77)"/><path d="M371.92,293.77H389.5V251.34l23.21-5.3a15.49,15.49,0,0,0,11.62-18.66l-1.21-5.12L370.3,249.52Z" transform="translate(-24.24 -42.77)"/><polygon class="cls-3" points="350.43 104.78 354.8 109.86 355.61 103.06 361.39 108.98 367.1 99.25 350.43 104.78"/><path class="cls-2" d="M457.53,140.29l11.2-4a15.39,15.39,0,0,1,18.15,6.08h0a34.44,34.44,0,0,1,5.5,16.15l2,25.14h0a51.65,51.65,0,0,1,11.47,32.45v23.55l-64.57-12,24.82-41.75L459.14,167l-3.46-1.19a5.14,5.14,0,0,1-3.11-6.75l.69-1.73a13.49,13.49,0,0,0,.78-7l-.52-3.28A6.19,6.19,0,0,1,457.53,140.29Z" transform="translate(-24.24 -42.77)"/><path class="cls-6" d="M471.58,135.51a15.5,15.5,0,0,0-2.85.73l-11.2,4a5.8,5.8,0,0,0-1.36.69,8.19,8.19,0,0,0,6.69,3.87C467.25,144.85,470.89,140.81,471.58,135.51Z" transform="translate(-24.24 -42.77)"/><path d="M569.19,303.38a1.85,1.85,0,0,1-1-.31l-17.28-11.54a176.29,176.29,0,0,1-45.32-43.73,172.56,172.56,0,0,0-80.95-61.39l-31.34-11.47a27.78,27.78,0,0,0-17.45-.52,1.84,1.84,0,0,1-1.06-3.53,31.57,31.57,0,0,1,19.78.59L425.89,183a176.24,176.24,0,0,1,82.67,62.69,172.55,172.55,0,0,0,44.37,42.82L570.21,300a1.84,1.84,0,0,1-1,3.37Z" transform="translate(-24.24 -42.77)"/><path d="M185.69,165.43,189.51,141l-8.55-1.3a10.07,10.07,0,0,0-11.38,7.9l-11.29,54.1h0A48,48,0,0,0,185.69,165.43Z" transform="translate(-24.24 -42.77)"/><polygon points="154.22 186.97 157.25 178.43 159.02 190.83 154.22 186.97"/><path d="M155,313.7a14.86,14.86,0,0,0-1.14-1.56,14,14,0,0,0-9.64-4.74H144a8.31,8.31,0,0,1-4.43-1.72,19.37,19.37,0,0,1-14.68,1.89l-3.29,6.14Z" transform="translate(-24.24 -42.77)"/><polygon points="109.76 247.89 121.65 247.89 110.77 246.01 109.76 247.89"/><polygon points="188.41 249.66 200.01 249.66 188.41 251.33 188.41 249.66"/><path class="cls-2" d="M270.29,185.75a2.14,2.14,0,0,1-.46-4.24l35-7.64a2.15,2.15,0,0,1,.92,4.2l-35,7.63A1.85,1.85,0,0,1,270.29,185.75Z" transform="translate(-24.24 -42.77)"/><path class="cls-2" d="M275.81,209.12a2.15,2.15,0,0,1-.45-4.25l35-7.63a2.14,2.14,0,0,1,.91,4.19l-35,7.64A2.4,2.4,0,0,1,275.81,209.12Z" transform="translate(-24.24 -42.77)"/><path class="cls-6" d="M126.22,184,117,148.65h0a7.07,7.07,0,1,0-13.09,5.1h0l9.76,28.59a22,22,0,0,0,7.91,10.7l23.77,17.18,3.72-5.88Z" transform="translate(-24.24 -42.77)"/><path class="cls-6" d="M145.69,201.35l6.19,4.88,5.18,1.24a.32.32,0,0,1,0,.61l-3,1,3.4,4.38a2.87,2.87,0,0,1,0,3.57h0a2.88,2.88,0,0,1-4,.49l-13.23-10.94Z" transform="translate(-24.24 -42.77)"/><polygon points="45.39 195.58 66.83 193.1 46.37 193.1 45.39 195.58"/><polygon points="83.05 195.58 106.7 193.1 93.92 193.1 89.12 186.43 89.12 193.1 81.26 193.1 83.05 195.58"/><path class="cls-2" d="M392.71,150.76l5.8,22.14L379.7,162.37l-6.4,12.4L403,192.11a9.28,9.28,0,0,0,13.69-10.23L408,146.64" transform="translate(-24.24 -42.77)"/><polygon class="cls-3" points="350.02 130.14 346.06 127.07 350.43 118.4 354.8 120.87 350.02 130.14"/><circle class="cls-2" cx="376.19" cy="106.33" r="7.92"/><path class="cls-6" d="M350.55,208.63l-3.66-1.36,3.77-1.09.74-6.86a2.7,2.7,0,0,1,2.41-2.41h0a2.73,2.73,0,0,1,2.89,2l1.93,6.88a4,4,0,0,1-2.3,4.77l-.53.23a4,4,0,0,1-5.25-2.13Z" transform="translate(-24.24 -42.77)"/><polygon points="374.26 130.14 377.73 132.7 373.31 126.5 374.26 130.14"/><polygon points="187.04 213.38 189.81 215.69 187.04 215.16 187.04 213.38"/><polygon points="129.94 204.04 129.94 208.72 128.73 206.38 129.94 204.04"/><path class="cls-6" d="M473,192.08l-5.85,5.28-5.1,1.57a.32.32,0,0,0,0,.61l3.06.78L462,204.91a2.88,2.88,0,0,0,.27,3.57h0a2.88,2.88,0,0,0,4,.23l12.49-11.78Z" transform="translate(-24.24 -42.77)"/><path d="M487.57,171.78,474.8,147.06h0a7.07,7.07,0,1,1,12-7.33h0L501.26,174l-22.65,25.39-7.44-7.67Z" transform="translate(-24.24 -42.77)"/><polygon points="417.02 188.87 441.38 189.36 419.2 185.24 417.02 188.87"/><polygon points="434.89 124.27 437.93 125.24 435.61 126.2 434.89 124.27"/><polygon points="425.26 248.3 436.05 246.28 426.07 250.46 425.26 248.3"/><polygon points="486.12 246.41 493.7 238.64 488.27 248.1 486.12 246.41"/><circle class="cls-3" cx="259.5" cy="56.03" r="45.5"/><circle class="cls-3" cx="238.76" cy="103.01" r="9.12" transform="translate(59.22 268.8) rotate(-76.66)"/><circle class="cls-3" cx="324.3" cy="118.39" r="16.13" transform="translate(105.83 361.03) rotate(-75.82)"/><circle class="cls-3" cx="192.2" cy="68.34" r="2.41"/><path class="cls-3" d="M354.54,118.75a1.71,1.71,0,1,1-1.7-1.7A1.7,1.7,0,0,1,354.54,118.75Z" transform="translate(-24.24 -42.77)"/><circle class="cls-1" cx="259.5" cy="56.5" r="16.53"/><path d="M290,98h-.46a3.41,3.41,0,0,0-3.4,3.4v2.16h-4.79v-2.16A3.4,3.4,0,0,0,278,98h-.46a3.4,3.4,0,0,0,0,6.8h2.63v11.58h1.23V104.83h4.79v11.58h1.24V104.83H290a3.4,3.4,0,0,0,0-6.8Zm-9.88,5.56h-2.63a2.16,2.16,0,0,1,0-4.32H278a2.17,2.17,0,0,1,2.17,2.16Zm9.88,0h-2.62v-2.16a2.16,2.16,0,0,1,2.16-2.16H290a2.16,2.16,0,1,1,0,4.32Z" transform="translate(-24.24 -42.77)"/><path d="M276.66,114.25c0,.1,0,.21,0,.31v8.19a7.12,7.12,0,0,0,7.11,7.1h0a7.11,7.11,0,0,0,7.1-7.1v-8.19c0-.1,0-.21,0-.31Z" transform="translate(-24.24 -42.77)"/><rect x="257.81" y="83.38" width="3.4" height="7.41" rx="1.37"/><path class="cls-1" d="M283.78,74.83h0a.77.77,0,0,1-.77-.76V64.82a.77.77,0,0,1,.77-.77h0a.77.77,0,0,1,.77.77v9.25A.77.77,0,0,1,283.78,74.83Z" transform="translate(-24.24 -42.77)"/><path class="cls-1" d="M249.86,93.34h0a.77.77,0,0,1,.77-.76h9.25a.76.76,0,0,1,.77.76h0a.77.77,0,0,1-.77.77h-9.25A.78.78,0,0,1,249.86,93.34Z" transform="translate(-24.24 -42.77)"/><path class="cls-1" d="M306.84,93.34h0a.77.77,0,0,1,.77-.76h9.25a.77.77,0,0,1,.77.76h0a.78.78,0,0,1-.77.77h-9.25A.78.78,0,0,1,306.84,93.34Z" transform="translate(-24.24 -42.77)"/><path class="cls-1" d="M300.39,82h0a.76.76,0,0,1,0-1.08l6.54-6.55a.79.79,0,0,1,1.09,0h0a.77.77,0,0,1,0,1.09L301.48,82A.77.77,0,0,1,300.39,82Z" transform="translate(-24.24 -42.77)"/><path class="cls-1" d="M268.08,82h0a.76.76,0,0,0,0-1.08l-6.54-6.55a.79.79,0,0,0-1.09,0h0a.77.77,0,0,0,0,1.09L267,82A.77.77,0,0,0,268.08,82Z" transform="translate(-24.24 -42.77)"/></svg>